<svg width="300" height="155" viewBox="0 0 140 60" fill="#FFD374" xmlns="http://www.w3.org/2000/svg">
	<path d="M64.8888 0L62.2263 1.42287V2.99742H59.6649V4.49507L58.4091 5.24469L57.5119 7.05209L55.3359 53.7362L56.858 54.0421L57.3086 59.7287H57.9948L59.5285 5.50739L60.3152 5.04637L60.3291 3.57655H62.8254L62.8359 1.7135L64.9017 0.60197L67.4239 0.403754L74.1814 0H64.8888Z"></path>
	<path d="M78.9292 54.5098H73.7549V10.9258H78.9292V54.5098Z"></path>
	<path d="M71.8177 54.5112H68.3193V6.29297H71.8177V54.5112Z"></path>
	<path d="M66.3782 54.5098H61.2051V10.9258H66.3782V54.5098Z"></path>
	<path d="M5.23088 49.9322H2.56488L1.19077 53.3608C1.09654 53.6079 1.0497 53.7591 1.0497 53.8183C1.0497 53.9523 1.14966 54.0201 1.34989 54.0201V54.1139H0V54.0201C0.180899 54.0201 0.333333 53.9766 0.456659 53.8897C0.579454 53.8008 0.715838 53.5712 0.863701 53.199L4.15558 44.8945H4.31757L7.5556 52.9172C7.5556 52.9572 7.63919 53.1504 7.80448 53.4982C7.96987 53.8461 8.22343 54.0201 8.56292 54.0201V54.1139H6.44333V54.0201C6.63602 54.0201 6.73289 53.9454 6.73289 53.7939C6.73289 53.6915 6.68594 53.5277 6.59087 53.3C6.57345 53.2824 6.55953 53.2547 6.54838 53.2198C6.53892 53.1782 6.53394 53.1573 6.52831 53.1573L5.23088 49.9322ZM2.65092 49.6815H5.10809L3.88099 46.5852L2.65092 49.6815Z"></path>
	<path d="M13.472 45.1484L13.9031 46.2826L13.8283 46.2948C13.8283 46.2933 13.7153 46.1712 13.486 45.9312C13.2595 45.6947 12.998 45.5085 12.7028 45.3815C12.4096 45.2493 12.0767 45.1849 11.708 45.1849C11.088 45.1849 10.5956 45.3624 10.2299 45.7172C9.86765 46.0756 9.68548 46.5037 9.68548 47.0045C9.68548 47.3367 9.77258 47.6307 9.94233 47.8777C10.1121 48.1265 10.4692 48.3562 11.0109 48.5737C11.9426 48.8869 12.581 49.1249 12.9238 49.2816C13.2684 49.4415 13.5987 49.7079 13.9181 50.0836C14.237 50.4627 14.3954 50.948 14.3954 51.536C14.3954 51.7847 14.3677 52.0195 14.3083 52.2456C14.2508 52.4684 14.1598 52.6841 14.0335 52.8894C13.9048 53.0982 13.7519 53.286 13.5724 53.4582C13.3932 53.6287 13.2125 53.7556 13.028 53.8461C12.843 53.9348 12.5508 53.9993 12.1522 54.0461C11.7522 54.0914 11.4912 54.1139 11.3625 54.1139H8.94043V51.4768H9.03157C9.03964 52.3519 9.24561 52.9607 9.64926 53.3051C10.0518 53.6494 10.6771 53.8253 11.5296 53.8253C12.3019 53.8253 12.8891 53.6426 13.289 53.2754C13.6902 52.9103 13.8909 52.4684 13.8909 51.9536C13.8909 51.6438 13.8198 51.376 13.6825 51.1569C13.5411 50.9376 13.3463 50.7446 13.0962 50.5793C12.8444 50.4105 12.3688 50.2088 11.6722 49.9687C10.9782 49.7251 10.4902 49.5111 10.2065 49.3285C9.92724 49.1459 9.68994 48.8711 9.50129 48.5022C9.30977 48.1353 9.21757 47.7613 9.21757 47.3785C9.21757 46.6776 9.45943 46.0859 9.94233 45.6111C10.4241 45.1344 11.0591 44.8945 11.8434 44.8945C12.1489 44.8945 12.4766 44.931 12.8315 44.9987C13.1839 45.0701 13.3814 45.1171 13.4222 45.1381C13.4387 45.145 13.4543 45.1484 13.472 45.1484Z"></path>
	<path d="M22.3126 44.7188L21.8813 45.8182H21.7892C21.804 45.7502 21.8137 45.6633 21.8137 45.5502C21.8137 45.458 21.7789 45.3988 21.7119 45.3692C21.6431 45.343 21.5362 45.3308 21.3874 45.3308H19.0191V53.098C19.0191 53.4179 19.0468 53.6372 19.0974 53.7554C19.1496 53.8702 19.2193 53.9451 19.3078 53.9746C19.3949 54.0078 19.5375 54.0217 19.7341 54.0217V54.1155H17.2751V54.0217C17.5838 54.0009 17.7781 53.9433 17.8551 53.8443C17.9328 53.7451 17.9709 53.5416 17.9709 53.2285V45.3308H15.7008C15.4723 45.3308 15.3235 45.343 15.2521 45.3692C15.1833 45.3988 15.1478 45.4633 15.1478 45.571C15.1478 45.6232 15.1635 45.705 15.1982 45.8182H15.1059L14.6738 44.7188H14.7661C14.8391 44.8683 14.9128 44.957 14.9843 44.9882C15.0563 45.0196 15.2111 45.0318 15.4489 45.0318H21.4743C21.7124 45.0318 21.8849 45.0196 21.9894 44.9882C22.0927 44.957 22.1704 44.8683 22.219 44.7188H22.3126Z"></path>
	<path d="M26.557 49.9322H23.8904L22.5168 53.3608C22.4212 53.6079 22.3733 53.7591 22.3733 53.8183C22.3733 53.9523 22.4752 54.0201 22.6768 54.0201V54.1139H21.3271V54.0201C21.5061 54.0201 21.6593 53.9766 21.783 53.8897C21.9064 53.8008 22.0403 53.5712 22.1882 53.199L25.4795 44.8945H25.6435L28.881 52.9172C28.881 52.9572 28.9643 53.1504 29.1308 53.4982C29.2967 53.8461 29.5488 54.0201 29.8901 54.0201V54.1139H27.7685V54.0201C27.9616 54.0201 28.059 53.9454 28.059 53.7939C28.059 53.6915 28.0102 53.5277 27.9181 53.3C27.9007 53.2824 27.8868 53.2547 27.8738 53.2198C27.8659 53.1782 27.8592 53.1573 27.8556 53.1573L26.557 49.9322ZM23.9781 49.6815H26.4342L25.207 46.5852L23.9781 49.6815Z"></path>
	<path d="M37.8918 45.0312H39.649V45.127C39.3809 45.1339 39.1967 45.1913 39.094 45.2955C38.9915 45.4001 38.9402 45.6209 38.9402 45.9568V54.2247L31.6968 46.5098V53.228C31.6968 53.4418 31.7124 53.6002 31.7455 53.701C31.7776 53.8055 31.8263 53.875 31.8863 53.9116C31.9471 53.9481 32.1021 53.9846 32.3501 54.0212V54.115H30.6042V54.0212C30.9174 54.0212 31.1105 53.9654 31.187 53.8541C31.2638 53.7446 31.3021 53.4803 31.3021 53.0609V46.9186C31.3021 46.3794 31.2271 45.9411 31.0748 45.5984C30.9263 45.2591 30.5792 45.1008 30.0371 45.127V45.0312H31.7455L38.5496 52.28V45.8697C38.5496 45.5253 38.4897 45.3148 38.3659 45.24C38.2435 45.1634 38.0853 45.127 37.8918 45.127V45.0312Z"></path>
	<path d="M45.0523 49.9322H42.3867L41.0105 53.3608C40.9166 53.6079 40.8708 53.7591 40.8708 53.8183C40.8708 53.9523 40.9706 54.0201 41.1723 54.0201V54.1139H39.8223V54.0201C40.0008 54.0201 40.1556 53.9766 40.2783 53.8897C40.3999 53.8008 40.5358 53.5712 40.6836 53.199L43.9754 44.8945H44.139L47.3773 52.9172C47.3773 52.9572 47.4588 53.1504 47.6259 53.4982C47.7921 53.8461 48.0452 54.0201 48.3852 54.0201V54.1139H46.2641V54.0201C46.4572 54.0201 46.5538 53.9454 46.5538 53.7939C46.5538 53.6915 46.5074 53.5277 46.4135 53.3C46.3965 53.2824 46.3825 53.2547 46.3683 53.2198C46.3613 53.1782 46.3544 53.1573 46.3512 53.1573L45.0523 49.9322ZM42.4737 49.6815H44.9308L43.7033 46.5852L42.4737 49.6815Z"></path>
	<path d="M99.5094 44.7188L99.0772 45.8182H98.9874C99.0032 45.7502 99.0103 45.6633 99.0103 45.5502C99.0103 45.458 98.9773 45.3988 98.9093 45.3692C98.8396 45.343 98.7309 45.3308 98.5857 45.3308H96.2147V53.098C96.2147 53.4179 96.2409 53.6372 96.2929 53.7554C96.3454 53.8702 96.4166 53.9451 96.5025 53.9746C96.5922 54.0078 96.7369 54.0217 96.9318 54.0217V54.1155H94.4719V54.0217C94.7794 54.0009 94.9728 53.9433 95.051 53.8443C95.1311 53.7451 95.1691 53.5416 95.1691 53.2285V45.3308H92.8984C92.6696 45.3308 92.5211 45.343 92.4502 45.3692C92.38 45.3988 92.3434 45.4633 92.3434 45.571C92.3434 45.6232 92.3599 45.705 92.3948 45.8182H92.3027L91.8711 44.7188H91.9632C92.0364 44.8683 92.1079 44.957 92.1811 44.9882C92.2531 45.0196 92.4087 45.0318 92.6452 45.0318H98.6737C98.9104 45.0318 99.0817 45.0196 99.1877 44.9882C99.2901 44.957 99.3669 44.8683 99.4173 44.7188H99.5094Z"></path>
	<path d="M104.774 44.8945C106.049 44.8945 107.091 45.2825 107.9 46.0582C108.709 46.8342 109.116 47.7994 109.116 48.958C109.116 50.4488 108.645 51.7067 107.708 52.7242C106.773 53.7452 105.53 54.2567 103.979 54.2567C102.722 54.2567 101.691 53.8427 100.89 53.0233C100.09 52.2005 99.6875 51.2124 99.6875 50.0626C99.6875 49.2869 99.8808 48.4885 100.268 47.6691C100.653 46.8532 101.238 46.1852 102.013 45.6703C102.791 45.1553 103.711 44.8945 104.774 44.8945ZM104.738 53.7748C105.364 53.7748 105.981 53.6079 106.585 53.2703C107.197 52.9382 107.675 52.4753 108.025 51.8892C108.374 51.2995 108.547 50.6958 108.547 50.075C108.547 49.1947 108.312 48.3961 107.841 47.6777C107.372 46.9592 106.761 46.3939 106.009 45.9869C105.263 45.5798 104.567 45.3782 103.93 45.3782C103.031 45.3782 102.215 45.7172 101.48 46.3939C100.746 47.0741 100.379 47.9143 100.379 48.9232C100.379 50.2088 100.827 51.3395 101.723 52.3118C102.619 53.286 103.624 53.7748 104.738 53.7748Z"></path>
	<path d="M118.833 54.2577H118.679L116.172 47.3326L113.713 54.2577H113.574L110.617 46.148C110.502 45.8211 110.371 45.567 110.238 45.3929C110.1 45.2138 109.904 45.127 109.645 45.127V45.0312H111.791V45.127C111.581 45.127 111.478 45.2017 111.478 45.3531C111.478 45.4453 111.51 45.5808 111.577 45.7671L113.983 52.3705L115.958 46.7917L115.768 46.2611C115.599 45.7948 115.437 45.4888 115.284 45.3425C115.128 45.1982 114.956 45.127 114.762 45.127V45.0312H116.886V45.127C116.679 45.127 116.576 45.2138 116.576 45.3929C116.576 45.4453 116.619 45.5862 116.704 45.814L119.106 52.393L121.502 45.701C121.506 45.6835 121.512 45.6732 121.512 45.6698L121.607 45.3531C121.607 45.2017 121.499 45.127 121.286 45.127V45.0312H122.609V45.127C122.247 45.1287 121.962 45.4244 121.754 46.007L118.833 54.2577Z"></path>
	<path d="M123.38 45.1392V45.0312H129.088V46.2836H128.997C128.873 45.8211 128.768 45.5461 128.683 45.4661C128.603 45.3825 128.394 45.3409 128.065 45.3409H125.07V49.4166H127.848C128.125 49.4166 128.3 49.3923 128.374 49.3402C128.448 49.288 128.488 49.2115 128.492 49.1157H128.584V49.9716H128.492C128.471 49.8515 128.424 49.7731 128.347 49.7298C128.269 49.6879 128.128 49.6689 127.925 49.6689H125.07V52.4748C125.07 52.8973 125.11 53.2037 125.187 53.3915C125.265 53.5794 125.39 53.6958 125.559 53.743C125.728 53.7881 125.987 53.8106 126.331 53.8106H127.932C128.441 53.8106 128.767 53.7949 128.908 53.7602C129.049 53.7272 129.17 53.6558 129.267 53.5516C129.367 53.447 129.443 53.2193 129.496 52.8696H129.588V54.115H123.38V54.0212C123.589 54.0107 123.748 53.9691 123.857 53.9011C123.967 53.8335 124.021 53.6593 124.021 53.3759V46.0437C124.021 45.7114 123.991 45.4766 123.935 45.3409C123.877 45.2068 123.693 45.1392 123.38 45.1392Z"></path>
	<path d="M130.476 45.127V45.0312H133.054C133.708 45.0312 134.18 45.0469 134.473 45.0765C134.764 45.1061 135.063 45.2017 135.369 45.3635C135.676 45.5253 135.906 45.7462 136.061 46.0227C136.22 46.3012 136.296 46.642 136.296 47.0438C136.296 47.5067 136.159 47.9433 135.88 48.3625C135.602 48.7818 135.211 49.1329 134.706 49.4219L135.346 50.4065C135.487 50.6517 135.856 51.1925 136.458 52.0259C137.062 52.8575 137.528 53.3652 137.857 53.5516C138.185 53.7341 138.505 53.8264 138.813 53.8264C139.117 53.8264 139.466 53.7063 139.861 53.4733L139.898 53.5967C139.404 53.9986 138.765 54.2022 137.977 54.2022C137.451 54.2022 136.999 54.0455 136.62 53.7341C136.242 53.4228 135.586 52.5686 134.647 51.1717C134.64 51.163 134.635 51.1561 134.635 51.1474L133.723 49.7419L132.912 49.7681H132.179V53.2383C132.179 53.5202 132.215 53.7185 132.288 53.8402C132.361 53.9602 132.538 54.0212 132.821 54.0212V54.115H130.476V54.0212C130.768 54.0107 130.95 53.9481 131.023 53.8367C131.093 53.7272 131.131 53.4993 131.131 53.16V45.9445C131.131 45.7114 131.1 45.5148 131.039 45.3617C130.975 45.2086 130.791 45.1287 130.476 45.127ZM132.179 45.2714V49.533H133.13C133.881 49.533 134.437 49.3558 134.798 49.0025C135.161 48.6493 135.34 48.185 135.34 47.611C135.34 47.0507 135.161 46.5204 134.809 46.0227C134.452 45.5235 133.824 45.2714 132.927 45.2714H132.179Z"></path>
	<path d="M139.914 60.0019H0.00390625V59.2695H139.914V60.0019Z"></path>
</svg>