<svg width="250" height="56" viewBox="0 0 250 56" fill="none" xmlns="http://www.w3.org/2000/svg">
<path fill-rule="evenodd" clip-rule="evenodd" d="M154.164 55.471V0H154.553V55.471H154.164Z" fill="#c6093b"/>
<path fill-rule="evenodd" clip-rule="evenodd" d="M225.573 11.8042C224.678 11.8042 224.055 12.5205 224.055 13.4004C224.055 14.2803 224.693 15.0045 225.589 15.0045C226.484 15.0045 227.107 14.2881 227.107 13.4082C227.099 12.5283 226.469 11.8042 225.573 11.8042ZM225.573 15.7286C224.187 15.7286 223.229 14.6852 223.229 13.4082C223.229 12.1312 224.203 11.0723 225.589 11.0723C226.967 11.0723 227.933 12.1235 227.933 13.3926C227.933 14.6696 226.951 15.7286 225.573 15.7286ZM207.352 13.7195C207.975 13.7195 208.278 13.9453 208.278 14.3268C208.278 14.7395 207.951 14.9575 207.406 14.9498H206.098V13.7195H207.352ZM207.235 11.8585C207.749 11.8585 208.029 12.0687 208.029 12.4347C208.029 12.8552 207.686 13.0499 207.18 13.0576H206.098V11.8585H207.235ZM208.169 13.3146C208.504 13.1355 208.815 12.8552 208.815 12.3024C208.815 11.6016 208.247 11.1577 207.336 11.1499H205.319V15.6505H207.398C208.403 15.6505 209.065 15.2223 209.065 14.4125C209.065 13.7974 208.699 13.4937 208.169 13.3146ZM190.128 13.2838L191.499 11.1581H192.34V15.6587H191.553V12.4273L190.128 14.553H190.105L188.695 12.4429V15.6587H187.917V11.1581H188.766L190.128 13.2838ZM194.149 15.6587V11.1581H197.481V11.8667H194.935V13.0347H197.193V13.7355H194.935V14.9502H197.512V15.6587H194.149ZM202.673 11.1581L201.31 13.2838L199.94 11.1581H199.099V15.6587H199.878V12.4429L201.279 14.553H201.31L202.728 12.4273V15.6587H203.522V11.1581H202.673ZM213.94 11.8667H211.402V13.0347H213.652V13.7355H211.402V14.9502H213.979V15.6587H210.607V11.1581H213.94V11.8667ZM216.346 11.8745H217.499C218.083 11.8745 218.433 12.1314 218.425 12.6298C218.425 13.0892 218.067 13.3851 217.499 13.3851H216.346V11.8745ZM217.343 14.0936L218.449 15.6587V15.6665H219.383L218.168 13.9613C218.799 13.79 219.243 13.3384 219.243 12.5909C219.243 11.7032 218.604 11.1581 217.569 11.1581H215.56V15.6587H216.354V14.0936H217.343ZM230.321 11.8745H232.883V11.1581H229.535V15.6587H230.321V13.8211H232.595V13.1048H230.321V11.8745ZM169.993 36.768C169.993 36.768 180.863 33.3731 209.915 33.3731C239.176 33.3731 249.999 36.7446 249.999 36.7446C249.999 36.7446 236.762 34.432 209.915 34.432C183.067 34.432 169.993 36.768 169.993 36.768ZM180.412 23.9902H178.917L181.658 31.9013H182.85L184.781 26.2561L186.712 31.9013H187.903L190.636 23.9902H189.188L187.319 29.8146L185.388 23.9669H184.22L182.289 29.8146L180.412 23.9902ZM194.139 28.7481L191.024 23.9905H192.651L194.847 27.4711L197.074 23.9905H198.655L195.532 28.7169V31.8471H194.139V28.7481ZM200.702 23.9905H199.418V31.8471H200.78V26.2564L205.109 31.8471H206.27V23.9905H204.907V29.4255L200.702 23.9905ZM210.997 30.5935C212.648 30.5935 213.73 29.48 213.73 27.9461V27.9149C213.73 26.3732 212.656 25.2442 210.997 25.2442H209.448V30.5857H210.997V30.5935ZM208.07 23.9905H210.997C213.466 23.9905 215.179 25.688 215.179 27.8994V27.9149C215.179 30.1263 213.473 31.8471 210.997 31.8471H208.07V23.9905ZM218.003 23.9905H216.625V31.8471H218.003V28.5378H221.756V31.8471H223.135V23.9905H221.756V27.2531H218.003V23.9905ZM229.693 28.7242L228.331 25.5785L226.984 28.7242H229.693ZM227.715 23.9355H228.992L232.45 31.8544H230.994L230.192 29.9545H226.477L225.668 31.8544H224.25L227.715 23.9355ZM234.822 23.9905H233.35V31.8471H234.713V26.233L237.173 29.9161H237.22L239.696 26.2097V31.8471H241.074V23.9905H239.611L237.22 27.7047L234.822 23.9905ZM183.347 41.5644C184.336 41.5644 184.959 41.0505 184.959 40.2485V40.2251C184.959 39.3842 184.351 38.9248 183.331 38.9248H181.322V41.5566H183.347V41.5644ZM179.952 37.6711H183.448C184.437 37.6711 185.208 37.967 185.714 38.4576C186.127 38.878 186.368 39.462 186.368 40.1472V40.1706C186.368 41.4632 185.597 42.234 184.491 42.5455L186.609 45.5199H184.982L183.059 42.7869H181.33V45.5199H179.952V37.6711ZM194.364 37.6711H188.54V45.5199H194.419V44.2819H189.918V42.1795H193.858V40.9415H189.918V38.9014H194.364V37.6711ZM195.93 37.6709H197.425L199.294 43.4874L201.225 37.6475H202.393L204.316 43.4874L206.193 37.6709H207.641L204.9 45.5741H203.717L201.785 39.9367L199.854 45.5741H198.671L195.93 37.6709ZM211.924 39.2673L213.279 42.4053H210.577L211.924 39.2673ZM212.578 37.6166H211.301L207.346 45.5199H209.261L210.071 43.6278H213.785L214.579 45.5199H216.036L212.578 37.6166ZM221.259 41.5644C222.248 41.5644 222.871 41.0505 222.871 40.2485V40.2251C222.871 39.3842 222.264 38.9248 221.244 38.9248H219.235V41.5566H221.259V41.5644ZM217.864 37.6711H221.36C222.349 37.6711 223.12 37.967 223.626 38.4576C224.039 38.878 224.28 39.462 224.28 40.1472V40.1706C224.28 41.4632 223.502 42.234 222.404 42.5455L224.522 45.5199H222.894L220.963 42.7869H219.235V45.5199H217.856V37.6711H217.864ZM232.106 41.6189C232.106 43.1606 231.031 44.2663 229.38 44.2663H227.831V38.9248H229.38C231.031 38.9248 232.106 40.0616 232.106 41.5955V41.6189ZM229.38 37.6711H226.453V45.5199H229.38C231.849 45.5199 233.554 43.8069 233.554 41.5955V41.5722C233.554 39.3608 231.849 37.6711 229.38 37.6711ZM235.064 44.3749L235.897 43.386C236.645 44.04 237.4 44.406 238.373 44.406C239.23 44.406 239.767 44.0089 239.767 43.4171V43.3938C239.767 42.8331 239.456 42.5295 237.992 42.1946C236.318 41.7897 235.376 41.2992 235.376 39.8509V39.8275C235.376 38.4805 236.497 37.5539 238.054 37.5539C239.199 37.5539 240.11 37.9043 240.904 38.5428L240.164 39.5862C239.456 39.0567 238.755 38.7764 238.031 38.7764C237.221 38.7764 236.754 39.1891 236.754 39.703V39.7263C236.754 40.3337 237.112 40.5984 238.615 40.9566C240.273 41.3615 241.138 41.9533 241.138 43.2536V43.277C241.138 44.7486 239.985 45.6207 238.334 45.6207C237.135 45.6285 236.006 45.2158 235.064 44.3749ZM243.637 38.4031C243.637 38.4965 243.567 38.551 243.45 38.551H243.209V38.2473H243.45C243.567 38.2473 243.637 38.3018 243.637 38.3953V38.4031ZM243.458 38.0838H243.03H243.022V39.0416H243.201V38.7067H243.404L243.637 39.0416H243.855L243.598 38.6834C243.731 38.6444 243.824 38.551 243.824 38.3953V38.3875L243.746 38.185C243.684 38.1228 243.583 38.0838 243.458 38.0838ZM243.404 37.7568C243.871 37.7568 244.221 38.1228 244.221 38.5822C244.221 39.0416 243.863 39.4075 243.396 39.4075C242.929 39.4075 242.578 39.0416 242.578 38.5899V38.5822C242.578 38.1305 242.936 37.7568 243.404 37.7568ZM243.404 37.6711C242.89 37.6711 242.485 38.0838 242.485 38.5899C242.485 39.0883 242.882 39.501 243.396 39.5088C243.91 39.5088 244.315 39.0883 244.315 38.5899V38.5822C244.315 38.0838 243.918 37.6711 243.404 37.6711ZM171.101 12.9361H184.564V13.5393H171.101V12.9361ZM249.726 12.9356H236.263V13.5389H249.726V12.9356Z" fill="#c6093b"/>
<path fill-rule="evenodd" clip-rule="evenodd" d="M10.4725 17.9067L17.4355 28.5297L14.283 29.9447L6.34799 17.6874L6.9458 16.324L7.04902 16.3068C9.99507 15.9498 11.8831 14.0962 11.8831 11.5931C11.8831 8.81911 10.3993 7.62779 6.9458 7.62779C6.19746 7.62779 4.01695 7.6794 3.37183 7.6966L3.40624 29.4888H0V5.17203H0.189235C0.240845 5.17203 5.92651 5 7.04902 5C9.32844 5 15.3883 5 15.3883 11.3523C15.3883 15.795 11.7627 17.3648 10.5542 17.8723C10.5198 17.8895 10.5069 17.8895 10.4725 17.9067ZM127.437 21.1581H122.534L125.003 15.0123L127.437 21.1581ZM124.065 10.2083L116.049 29.463H119.197L121.528 23.6913H128.491L130.787 29.463H134.073L126.19 10.2083H124.065ZM98.6819 26.7234V13.2575C99.1765 13.2231 99.4819 13.2231 99.8905 13.2231C101.865 13.2231 103.55 13.5457 104.897 14.1951C107.094 15.2316 108.505 17.6659 108.505 20.4098C108.505 22.1301 107.942 23.7128 106.922 24.8697C105.731 26.2675 103.873 26.8782 100.875 26.8782C100.144 26.8782 99.5464 26.8438 98.6647 26.7234H98.6819ZM100.484 10.5179C99.8044 10.5179 98.4411 10.5351 97.0261 10.6384L95.5638 10.7072V29.3684L95.8692 29.4028C97.4519 29.5232 98.4583 29.592 99.869 29.592C102.643 29.592 104.587 29.321 106.389 28.6888C109.623 27.4975 111.804 24.0569 111.804 20.1259C111.804 17.4379 110.78 14.9004 108.978 13.1973C107.09 11.434 104.161 10.5179 100.484 10.5179ZM82.6227 21.1581H77.7198L80.1885 15.0123L82.6227 21.1581ZM79.238 10.2083L71.217 29.463H74.3652L76.7134 23.6913H83.6764L85.9731 29.463H89.2589L81.3411 10.2083H79.238ZM63.6906 10.5824L65.8883 29.463H62.7917L61.4972 16.9992L55.7427 29.463H53.8375L48.1647 17.2573L46.8013 29.463H43.8897L46.1863 10.5824H48.3496L54.9557 24.8654L61.5101 10.5824H63.6906ZM29.5207 15.0123L27.0521 21.1581H31.955L29.5207 15.0123ZM30.6991 10.2083L38.5997 29.463H35.3096L32.9958 23.7085H26.0328L23.7017 29.4802H20.5535L28.5702 10.2083H30.6991ZM134.301 11.4684H134.594C134.895 11.4684 134.989 11.3824 134.989 11.2061C134.989 11.0512 134.916 10.9652 134.632 10.9652H134.301V11.4684ZM134.301 12.3673H134.052V10.7631H134.667C135.05 10.7631 135.239 10.905 135.239 11.219C135.239 11.5114 135.058 11.6361 134.817 11.6619L135.277 12.3716H135.007L134.576 11.6705H134.301V12.3673ZM134.594 10.3975C133.949 10.3975 133.45 10.8964 133.45 11.563C133.45 12.2426 133.949 12.7328 134.594 12.7328C135.23 12.7328 135.733 12.2426 135.733 11.563C135.733 10.8964 135.234 10.3975 134.594 10.3975ZM134.594 10.1696C135.355 10.1696 136 10.7588 136 11.5587C136 12.3673 135.351 12.9565 134.594 12.9565C133.828 12.9565 133.179 12.3673 133.179 11.5587C133.179 10.7631 133.832 10.1696 134.594 10.1696Z" fill="#c6093b"/>
<path fill-rule="evenodd" clip-rule="evenodd" d="M40.1396 37.2515H38.9913V38.3869H40.1955C40.6901 38.3869 40.9911 38.1933 40.9911 37.8192V37.8063C40.9911 37.4579 40.7116 37.2515 40.1396 37.2515ZM40.7589 36.0644C40.7589 35.7376 40.5009 35.5397 40.0321 35.5397H38.9913V36.6365H39.9805C40.4449 36.6365 40.7589 36.4515 40.7589 36.0773V36.0644ZM38.2773 34.8989H40.131C40.6041 34.8989 40.9739 35.028 41.2105 35.2645C41.3954 35.4494 41.4857 35.6731 41.4857 35.9483V35.9612C41.4857 36.4558 41.2019 36.7225 40.8965 36.8816C41.3782 37.0493 41.718 37.3246 41.718 37.8837V37.8966C41.718 38.6363 41.1116 39.0277 40.1912 39.0277H38.2773V34.8989Z" fill="#c6093b"/>
<path fill-rule="evenodd" clip-rule="evenodd" d="M45.3431 37.3977L43.7002 34.8989H44.5604L45.713 36.7182L46.8785 34.8989H47.7128L46.0699 37.3805V39.0277H45.3431V37.3977Z" fill="#c6093b"/>
<path fill-rule="evenodd" clip-rule="evenodd" d="M52.9854 34.8994H53.7681L54.753 37.9615L55.768 34.8865H56.383L57.398 37.9615L58.3829 34.8994H59.1441L57.7076 39.0583H57.0797L56.0647 36.0907L55.0497 39.0583H54.4218L52.9854 34.8994Z" fill="#c6093b"/>
<path fill-rule="evenodd" clip-rule="evenodd" d="M62.6933 37.3977L61.0547 34.8989H61.9148L63.0675 36.7182L64.233 34.8989H65.063L63.4244 37.3805V39.0277H62.6933V37.3977Z" fill="#c6093b"/>
<path fill-rule="evenodd" clip-rule="evenodd" d="M67.2949 34.8989H67.9658L70.1808 37.7547V34.8989H70.8947V39.0277H70.284L68.0089 36.0903V39.0277H67.2949V34.8989Z" fill="#c6093b"/>
<path fill-rule="evenodd" clip-rule="evenodd" d="M74.2708 35.5612V38.3697H75.0836C75.9524 38.3697 76.5158 37.7848 76.5158 36.9762V36.9633C76.5158 36.1548 75.9481 35.5612 75.0836 35.5612H74.2708ZM73.5439 34.8989H75.0836C76.3825 34.8989 77.277 35.7892 77.277 36.9504V36.9633C77.277 38.1245 76.3782 39.0277 75.0836 39.0277H73.5439V34.8989Z" fill="#c6093b"/>
<path fill-rule="evenodd" clip-rule="evenodd" d="M79.7495 34.8989H80.4763V36.6149H82.4461V34.8989H83.173V39.0277H82.4461V37.2859H80.4763V39.0277H79.7495V34.8989Z" fill="#c6093b"/>
<path fill-rule="evenodd" clip-rule="evenodd" d="M88.3259 37.3894L87.612 35.7379L86.9024 37.3894H88.3259ZM87.2895 34.8691H87.9647L89.7796 39.028H89.0141L88.5926 38.0302H86.64L86.2143 39.028H85.4702L87.2895 34.8691Z" fill="#c6093b"/>
<path fill-rule="evenodd" clip-rule="evenodd" d="M92.0757 34.8989H92.8498L94.1057 36.8515L95.3658 34.8989H96.1356V39.0277H95.4088V36.0644L94.1057 38.0127H94.0842L92.7896 36.0773V39.0277H92.0757V34.8989Z" fill="#c6093b"/>
<path fill-rule="evenodd" clip-rule="evenodd" d="M85.6977 47.5565L84.8848 45.4577L84.0763 47.5565H85.6977ZM84.2827 43.746H85.5213L88.1362 50.266H86.7298L86.1707 48.8123H83.5903L83.0312 50.266H81.6635L84.2827 43.746ZM74.5242 43.7933H75.7628L78.6228 47.7801V43.7933H79.9475V50.2703H78.8078L75.8531 46.1544V50.2703H74.5285V43.7933H74.5242ZM70.3653 47.5565L69.5567 45.4577L68.7439 47.5565H70.3653ZM68.9546 43.746H70.1933L72.8081 50.266H71.4018L70.8427 48.8123H68.2622L67.7031 50.266H66.3354L68.9546 43.746ZM62.6367 45.105H60.7788V43.7933H65.8322V45.105H63.9743V50.266H62.6325V45.105H62.6367ZM57.1618 50.3606C56.6973 50.3606 56.2415 50.2746 55.7942 50.1069C55.3469 49.9391 54.9383 49.6768 54.5727 49.3241L55.3641 48.3177C55.6436 48.5586 55.9318 48.7478 56.2242 48.8897C56.5167 49.0317 56.8393 49.1048 57.1876 49.1048C57.4672 49.1048 57.6822 49.0532 57.8371 48.9414C57.9919 48.8338 58.0693 48.6833 58.0693 48.4941V48.4769C58.0693 48.3822 58.0521 48.3005 58.022 48.2317C57.9876 48.1586 57.9317 48.0941 57.8371 48.0339C57.7467 47.9737 57.622 47.9092 57.4629 47.8489C57.3038 47.7887 57.093 47.7242 56.8393 47.6554C56.5339 47.5737 56.2544 47.4877 56.0006 47.3888C55.7512 47.2898 55.5404 47.1694 55.3641 47.0232C55.1921 46.877 55.0544 46.7006 54.9598 46.4813C54.8652 46.2663 54.8179 45.9996 54.8179 45.677V45.6598C54.8179 45.3631 54.8695 45.0964 54.9727 44.8599C55.0759 44.6233 55.2265 44.4169 55.4114 44.2449C55.6006 44.0728 55.8243 43.9395 56.0866 43.8449C56.349 43.7503 56.6371 43.7073 56.9511 43.7073C57.3984 43.7073 57.8112 43.7804 58.1854 43.9223C58.5596 44.0642 58.9037 44.2664 59.2176 44.533L58.5209 45.6082C58.2456 45.4104 57.979 45.2556 57.7166 45.1394C57.4543 45.0233 57.1962 44.9674 56.9339 44.9674C56.6758 44.9674 56.478 45.019 56.3447 45.1308C56.2113 45.2384 56.1468 45.3717 56.1468 45.5308V45.548C56.1468 45.6555 56.1683 45.7459 56.2027 45.8233C56.2415 45.9007 56.3103 45.9695 56.4092 46.0297C56.5081 46.0899 56.6414 46.1501 56.8135 46.206C56.9855 46.262 57.2005 46.3265 57.4629 46.3996C57.7682 46.4856 58.0435 46.5845 58.2843 46.692C58.5252 46.7996 58.7316 46.9286 58.8951 47.0791C59.0628 47.2296 59.1832 47.4103 59.2692 47.6124C59.3552 47.8145 59.3982 48.0597 59.3982 48.3435V48.3607C59.3982 48.6833 59.3423 48.9672 59.2305 49.2166C59.1187 49.466 58.9682 49.6768 58.7703 49.8488C58.5725 50.0166 58.3359 50.1456 58.065 50.2359C57.794 50.3133 57.493 50.3606 57.1618 50.3606ZM50.9171 47.5565L50.1042 45.4577L49.2957 47.5565H50.9171ZM49.5064 43.746H50.745L53.3599 50.266H51.9536L51.3944 48.8123H48.814L48.2549 50.266H46.8872L49.5064 43.746Z" fill="#c6093b"/>
</svg>
