<?xml version="1.0" encoding="UTF-8"?> <!-- Creator: CorelDRAW 2019 (64-Bit) --> <svg xmlns="http://www.w3.org/2000/svg" xmlns:xlink="http://www.w3.org/1999/xlink" xmlns:xodm="http://www.corel.com/coreldraw/odm/2003" xml:space="preserve" width="456px" height="190px" style="shape-rendering:geometricPrecision; text-rendering:geometricPrecision; image-rendering:optimizeQuality; fill-rule:evenodd; clip-rule:evenodd" viewBox="0 0 4560000 1903500"> <defs> <style type="text/css"> <![CDATA[ .fil0 {fill:#606366;fill-rule:nonzero} .fil1 {fill:#FAA41A;fill-rule:nonzero} ]]> </style> </defs> <g id="Слой_x0020_1"> <metadata id="CorelCorpID_0Corel-Layer"></metadata> <path class="fil0" d="M3915800 1711400l171000 0c-2300,-25800 -8900,-45100 -19600,-58000 -16500,-20000 -38000,-30100 -64300,-30100 -23900,0 -43900,8000 -60100,23900 -16200,16000 -25200,37400 -27000,64200zm-1701700 93900l51500 -8200c2800,20600 10900,36300 24100,47400 13200,10900 31800,16500 55400,16500 24000,0 41700,-4900 53300,-14600 11600,-9700 17400,-21100 17400,-34300 0,-11700 -5200,-21000 -15600,-27700 -7300,-4600 -25000,-10400 -53200,-17600 -38100,-9600 -64400,-17900 -79200,-24800 -14700,-7200 -25800,-16800 -33400,-29200 -7600,-12400 -11400,-26100 -11400,-41000 0,-13800 3100,-26400 9300,-38000 6300,-11600 14800,-21300 25600,-29000 8000,-5900 19100,-10900 33000,-15100 14000,-4100 28900,-6200 44800,-6200 24100,0 45200,3500 63300,10500 18300,6900 31700,16300 40400,28200 8500,11900 14600,27800 17800,47700l-50900 7100c-2200,-16000 -8900,-28500 -20000,-37500 -11000,-9000 -26600,-13400 -46800,-13400 -23800,0 -40800,4000 -51000,11800 -10100,7900 -15200,17200 -15200,27700 0,6700 2000,12900 6300,18300 4200,5500 10800,10100 19900,13800 5200,2000 20400,6400 45800,13300 36700,9800 62300,17800 76900,24000 14600,6300 26000,15400 34300,27300 8400,11900 12500,26700 12500,44400 0,17300 -5000,33500 -15100,48800 -10200,15300 -24800,27100 -43800,35500 -19100,8400 -40700,12500 -64800,12500 -39800,0 -70300,-8200 -91200,-24700 -20900,-16600 -34200,-41000 -40000,-73500zm-295800 0l51500 -8200c2800,20600 10900,36300 24100,47400 13300,10900 31800,16500 55400,16500 24000,0 41700,-4900 53400,-14600 11500,-9700 17300,-21100 17300,-34300 0,-11700 -5200,-21000 -15500,-27700 -7300,-4600 -25100,-10400 -53300,-17600 -38000,-9600 -64300,-17900 -79200,-24800 -14600,-7200 -25800,-16800 -33400,-29200 -7600,-12400 -11400,-26100 -11400,-41000 0,-13800 3100,-26400 9400,-38000 6300,-11600 14800,-21300 25500,-29000 8100,-5900 19100,-10900 33000,-15100 14000,-4100 28900,-6200 44900,-6200 24000,0 45100,3500 63300,10500 18200,6900 31600,16300 40300,28200 8600,11900 14600,27800 17800,47700l-50800 7100c-2300,-16000 -9000,-28500 -20000,-37500 -11100,-9000 -26700,-13400 -46900,-13400 -23700,0 -40800,4000 -50900,11800 -10200,7900 -15300,17200 -15300,27700 0,6700 2000,12900 6300,18300 4200,5500 10800,10100 19900,13800 5200,2000 20400,6400 45900,13300 36600,9800 62300,17800 76800,24000 14600,6300 26100,15400 34300,27300 8400,11900 12600,26700 12600,44400 0,17300 -5100,33500 -15200,48800 -10200,15300 -24800,27100 -43800,35500 -19100,8400 -40700,12500 -64700,12500 -39900,0 -70300,-8200 -91300,-24700 -20800,-16600 -34200,-41000 -40000,-73500zm-269200 -91000l170900 0c-2200,-25900 -8800,-45200 -19600,-58100 -16500,-20000 -37900,-30100 -64300,-30100 -23800,0 -43800,8000 -60100,24000 -16200,15900 -25100,37300 -26900,64200zm170300 83300l53900 7200c-8400,31200 -24100,55500 -47000,72800 -22800,17300 -52000,25900 -87600,25900 -44800,0 -80300,-13800 -106500,-41400 -26200,-27500 -39300,-66200 -39300,-116000 0,-51500 13200,-91500 39700,-119900 26500,-28500 60900,-42700 103200,-42700 40900,0 74400,13900 100300,41800 25900,27900 38900,67200 38900,117700 0,3100 -100,7700 -200,13800l-228700 0c2000,33700 11500,59500 28600,77300 17100,17900 38500,26900 64000,26900 19000,0 35300,-5100 48700,-15100 13500,-10100 24200,-26200 32000,-48300zm-538400 99400l0 -307000 46800 0 0 43600c22500,-33400 55000,-50100 97500,-50100 18500,0 35500,3400 51000,10000 15400,6600 27100,15400 34800,26100 7600,10700 13100,23600 16100,38400 1900,9600 2900,26500 2900,50500l0 188500 -52100 0 0 -186500c0,-21200 -1900,-37100 -6000,-47500 -4000,-10500 -11200,-18800 -21500,-25200 -10200,-6200 -22400,-9300 -36200,-9300 -22000,0 -41100,7000 -57100,21100 -16100,14000 -24100,40700 -24100,79900l0 167500 -52100 0zm-131400 0l0 -307000 52100 0 0 307000 -52100 0zm0 -364400l0 -59100 52100 0 0 59100 -52100 0zm-316400 272700l51400 -8200c2900,20600 11000,36300 24200,47400 13200,10900 31700,16500 55400,16500 23900,0 41700,-4900 53300,-14600 11600,-9700 17400,-21100 17400,-34300 0,-11700 -5300,-21000 -15600,-27700 -7300,-4600 -25000,-10400 -53300,-17600 -38000,-9600 -64300,-17900 -79100,-24800 -14700,-7200 -25800,-16800 -33400,-29200 -7600,-12400 -11500,-26100 -11500,-41000 0,-13800 3200,-26400 9400,-38000 6300,-11600 14800,-21300 25500,-29000 8100,-5900 19200,-10900 33100,-15100 14000,-4100 28800,-6200 44800,-6200 24100,0 45200,3500 63300,10500 18200,6900 31700,16300 40300,28200 8600,11900 14600,27800 17900,47700l-50900 7100c-2300,-16000 -9000,-28500 -20000,-37500 -11000,-9000 -26600,-13400 -46800,-13400 -23800,0 -40900,4000 -51000,11800 -10200,7900 -15300,17200 -15300,27700 0,6700 2100,12900 6300,18300 4300,5500 10900,10100 19900,13800 5300,2000 20400,6400 45900,13300 36700,9800 62300,17800 76900,24000 14600,6300 26000,15400 34300,27300 8400,11900 12500,26700 12500,44400 0,17300 -5000,33500 -15200,48800 -10100,15300 -24700,27100 -43700,35500 -19200,8400 -40800,12500 -64800,12500 -39800,0 -70300,-8200 -91200,-24700 -20900,-16600 -34200,-41000 -40000,-73500zm-107800 91700l0 -45600c-23900,34800 -56200,52100 -97100,52100 -18000,0 -34900,-3400 -50600,-10300 -15700,-7000 -27300,-15700 -34900,-26100 -7600,-10600 -12900,-23400 -16000,-38600 -2000,-10200 -3100,-26400 -3100,-48500l0 -190000 52000 0 0 169900c0,27100 1100,45400 3200,54800 3200,13700 10200,24400 20800,32200 10600,7700 23600,11700 39100,11700 15600,0 30200,-4000 43800,-11900 13600,-8000 23300,-19000 29000,-32700 5600,-13700 8500,-33700 8500,-59800l0 -164200 52000 0 0 307000 -46700 0zm-482200 -155700c0,36600 5000,63200 15000,79500 16400,26700 38400,40200 66300,40200 22800,0 42400,-9900 58900,-29600 16600,-19700 24800,-49100 24800,-88200 0,-40000 -7800,-69500 -23700,-88500 -15900,-19000 -35100,-28600 -57600,-28600 -22800,0 -42400,9900 -58900,29600 -16500,19700 -24800,48200 -24800,85600zm600 155700l-48500 0 0 -423500 52000 0 0 151100c22000,-27400 50000,-41100 84100,-41100 18900,0 36800,3800 53700,11400 16800,7500 30600,18300 41600,32000 10800,13800 19400,30400 25500,49800 6200,19300 9300,40100 9300,62200 0,52400 -13000,93100 -39000,121600 -26000,28700 -57100,43000 -93500,43000 -36200,0 -64600,-15100 -85200,-45100l0 38600zm3842400 -102200l53800 7100c-8400,31300 -24000,55600 -46900,72900 -22900,17300 -52100,25900 -87600,25900 -44800,0 -80300,-13800 -106500,-41400 -26300,-27500 -39400,-66200 -39400,-116000 0,-51500 13300,-91500 39800,-119900 26500,-28500 60900,-42700 103200,-42700 40900,0 74300,13900 100300,41800 25900,27900 38900,67100 38900,117700 0,3100 -100,7700 -300,13800l-228600 0c2000,33600 11400,59500 28600,77300 17000,17900 38400,26800 64000,26800 19000,0 35200,-5000 48700,-15100 13500,-10000 24100,-26100 32000,-48200zm111700 99400l0 -307000 46700 0 0 47000c11900,-21800 23000,-36200 33100,-43100 10200,-7000 21300,-10400 33500,-10400 17500,0 35400,5500 53500,16500l-18500 48000c-12700,-7100 -25300,-10700 -37900,-10700 -11300,0 -21500,3500 -30500,10300 -8900,6800 -15300,16300 -19200,28400 -5800,18400 -8700,38700 -8700,60600l0 160400 -52000 0zm-380300 -46400l7100 45900c-14600,3100 -27700,4700 -39200,4700 -18800,0 -33400,-3000 -43800,-9000 -10400,-6000 -17700,-13800 -21900,-23600 -4200,-9800 -6300,-30200 -6300,-61500l0 -176900 -38500 0 0 -40200 38500 0 0 -75900 52000 -31300 0 107200 52100 0 0 40200 -52100 0 0 179900c0,14800 900,24400 2800,28700 1800,4200 4700,7500 8900,10100 4100,2500 10000,3800 17700,3800 5700,0 13300,-700 22700,-2100zm-442000 46400l0 -307000 46700 0 0 43600c22500,-33400 55100,-50100 97600,-50100 18500,0 35400,3300 50900,10000 15500,6600 27100,15300 34800,26100 7700,10700 13100,23500 16200,38300 1900,9700 2900,26600 2900,50600l0 188500 -52100 0 0 -186500c0,-21200 -2000,-37100 -6000,-47500 -4100,-10500 -11300,-18900 -21500,-25200 -10300,-6200 -22400,-9300 -36200,-9300 -22100,0 -41100,7000 -57200,21100 -16000,13900 -24000,40700 -24000,79900l0 167500 -52100 0zm-289900 -182800l170900 0c-2200,-25800 -8900,-45100 -19600,-58000 -16500,-20000 -38000,-30100 -64300,-30100 -23800,0 -43900,8000 -60100,23900 -16200,16000 -25200,37400 -26900,64200zm170300 83400l53900 7100c-8400,31300 -24100,55600 -47000,72900 -22900,17300 -52000,25900 -87600,25900 -44800,0 -80300,-13800 -106500,-41400 -26200,-27500 -39300,-66200 -39300,-116000 0,-51500 13200,-91500 39700,-119900 26500,-28500 60900,-42700 103200,-42700 40900,0 74400,13900 100300,41800 25900,27900 38900,67100 38900,117700 0,3100 -100,7700 -300,13800l-228600 0c2000,33600 11500,59500 28600,77300 17100,17900 38400,26800 64000,26800 19000,0 35300,-5000 48700,-15100 13500,-10000 24100,-26100 32000,-48200zm-304600 -13000l50900 7100c-5700,35000 -19900,62300 -42800,82200 -23000,19800 -51300,29600 -84700,29600 -41900,0 -75600,-13700 -101100,-41100 -25500,-27400 -38200,-66600 -38200,-117700 0,-33100 5500,-62000 16400,-86900 11000,-24700 27600,-43300 50100,-55700 22400,-12400 46800,-18600 73200,-18600 33200,0 60500,8400 81600,25200 21200,16900 34800,40900 40700,71800l-50200 7700c-4900,-20600 -13400,-36100 -25700,-46500 -12200,-10400 -27000,-15600 -44400,-15600 -26200,0 -47500,9400 -63900,28100 -16400,18800 -24600,48400 -24600,89000 0,41200 7900,71100 23700,89700 15900,18700 36500,28000 61800,28000 20500,0 37600,-6200 51200,-18700 13700,-12400 22300,-31700 26000,-57600z"></path> <g id="_1951714821136"> <path class="fil0" d="M617800 263200c-12400,45900 -19000,106800 -19900,182700l-45700 0 0 -52900c0,-34500 -4600,-57900 -13900,-70200 -9200,-12400 -33400,-25500 -72500,-39400 -39000,-13900 -80200,-20900 -123500,-20900 -70600,0 -126100,17900 -166500,53600 -40400,35700 -60600,81500 -60600,137500 0,35200 8300,65500 24900,90900 16500,25300 38800,43600 66800,54900 28100,11200 87500,21100 178500,29700 90900,8800 152400,20500 184400,35100 32000,14600 57600,38000 76800,70200 19200,32200 28800,70400 28800,114600 0,88800 -37100,165100 -111200,229200 -74200,64100 -173100,96100 -296700,96100 -42400,0 -85100,-4300 -128100,-13000 -43000,-8600 -86400,-21200 -130100,-38100 8000,-52900 11700,-120900 11300,-203800l45000 0 0 33000c0,42900 2200,69300 6600,79500 4400,10200 14800,21000 31100,32500 24300,17200 53200,30300 86700,39400 33600,9000 69800,13500 108600,13500 83500,0 147900,-19600 193400,-58900 45400,-39300 68200,-89200 68200,-149700 0,-35300 -7800,-65200 -23200,-89700 -15500,-24400 -37100,-42700 -64900,-54600 -27800,-11900 -79200,-21000 -154300,-27100 -99700,-8000 -167500,-19900 -203200,-35800 -35800,-15900 -63800,-40900 -84100,-75100 -20300,-34200 -30500,-76700 -30500,-127500 0,-86100 31200,-156500 93400,-211200 62200,-54800 148300,-82100 258200,-82100 44200,0 88400,4700 132800,14200 44300,9500 88800,24000 133400,43400zm1100100 92800l-196900 409500c-73700,153800 -134300,288100 -181500,402900l-26500 0c-16300,-39300 -63200,-140300 -140500,-302900l-237200 -491100 0 511900c0,119200 4700,186900 14300,203000 9500,16100 39100,24200 88800,24200l24700 0 0 41700c-61500,-3200 -111500,-4700 -150000,-4700 -27900,0 -83400,1500 -166600,4700l0 -41700 43100 0c29100,0 48500,-4300 58300,-12700 9700,-8300 15600,-23600 17800,-45600 5700,-61800 8700,-128500 8700,-200000l0 -374700c0,-90500 -2000,-150400 -6000,-179500 -1800,-15000 -8300,-26500 -19600,-34400 -11200,-8000 -33600,-11900 -67200,-11900l-35100 0 0 -41700c76900,3000 125200,4600 145100,4600 25200,0 60900,-1600 107300,-4600 53400,118800 115100,249700 184900,392800l174300 358400 161000 -331900c56500,-116200 121000,-255900 193500,-419300 55200,3000 94000,4600 116500,4600 26100,0 73100,-1600 141100,-4600l0 41700 -43300 0c-39100,0 -62900,6700 -71600,20200 -8600,13500 -12900,61900 -12900,145300l0 484000c0,107700 4500,169500 13600,185400 9100,15900 34500,23900 76200,23900l38000 0 0 41700c-61400,-3200 -120100,-4700 -176200,-4700 -61800,0 -126500,1500 -194000,4700l0 -41700 43700 0c34900,0 56000,-7600 63200,-22900 7400,-15200 11000,-80700 11000,-196300l0 -538300z"></path> <path class="fil0" d="M3382500 678900c43300,62300 96900,134700 160900,217200l127200 164900c22500,28300 37500,44300 45000,48300 7500,4000 15200,6000 23200,6000l17200 0 0 41700c-36700,-3100 -68700,-4700 -96100,-4700 -25100,0 -51600,1600 -79400,4700l-234400 -316500c-43700,-58200 -90500,-115200 -140400,-170800l6700 -22600c25500,2300 44500,3400 56900,3400 73700,0 131400,-19000 173100,-57000 41800,-37900 62600,-88700 62600,-152300 0,-56900 -17700,-101400 -53000,-133400 -35300,-32000 -86200,-47900 -152900,-47900 -46400,0 -92900,8600 -139700,25700 -5300,70200 -8000,145300 -8000,225200l0 319800c0,155800 3800,242200 11300,259200 7500,17000 31800,25500 72800,25500l51700 0 0 41700c-73300,-3100 -134000,-4700 -182100,-4700 -37900,0 -106600,1600 -205900,4700l0 -41700 49600 0c38000,0 60500,-8300 67500,-24800 7100,-16600 10600,-103600 10600,-261300l0 -318400c0,-136900 -4000,-213500 -12100,-229800 -8300,-16300 -34900,-24500 -79900,-24500l-35700 0 0 -41700c82000,3100 144700,4600 188000,4600 29100,0 71100,-1100 125800,-3300 63600,-2200 109300,-3200 137100,-3200 76300,0 134300,8000 173800,24100 39500,16100 69500,39400 90000,69800 20500,30500 30800,66900 30800,109300 0,62200 -22400,117100 -67200,164800 -44800,47700 -109800,80400 -195000,98000zm853700 -401000c-4900,66300 -7200,136000 -7200,209300l0 377400c0,140400 3500,217700 10600,232100 7000,14300 32200,21500 75500,21500l49600 0 0 41700c-78100,-3100 -144400,-4600 -198600,-4600 -54800,0 -120500,1500 -197400,4600l0 -41700 55700 0c29100,0 48000,-3900 56900,-11600 8800,-7700 14400,-22800 16600,-45400 4300,-51600 6600,-118300 6600,-199900l0 -378100c0,-74600 -1600,-143100 -4600,-205300l-67400 0c-108800,0 -168700,2600 -179700,7700 -11000,5000 -18300,24800 -21800,59200l-9200 88700 -41800 0 1400 -78700c0,-31900 -2700,-77500 -8000,-137100 238400,3100 378500,4600 420500,4600l366100 -4600c-8400,74600 -13200,146500 -14500,215800l-41800 0 -6600 -86700c-2600,-30000 -6400,-47800 -11200,-53300 -4900,-5500 -15700,-9000 -32500,-10300 -48500,-3500 -103700,-5300 -165500,-5300l-51700 0z"></path> <path class="fil1" d="M2022600 847700c6100,-22500 277200,-668100 277200,-668100 0,0 406600,959800 409800,968800l143000 0c-7900,-16400 -499300,-1148400 -499300,-1148400l-45000 0c-17700,49500 -343100,786600 -373100,847700l87400 0z"></path> </g> </g> </svg> 